<svg id="Layer_1" xmlns="http://www.w3.org/2000/svg" viewBox="0 0 1366 814.7" >
<style type="text/css">
	.st0{fill:#999999;}
	.st1{fill:#69B22F;}
	.st2{fill:#CCCCCC;}
	.st3{fill:#FFFFFF;}
	.st4{fill:#4F9CB8;}
	.st5{font-family:'Lato-Bold';}
	.st6{font-size:17px; text-transform: uppercase;}
	.st7{fill:none;stroke:#4F9CB8;stroke-width:2;stroke-linecap:round;stroke-miterlimit:10;}
	.st8{fill:none;stroke:#4F9CB8;stroke-width:2;stroke-linecap:round;stroke-miterlimit:10;stroke-dasharray:11.98,11.98;}
	.st9{fill:none;stroke:#4F9CB8;stroke-width:2;stroke-linecap:round;stroke-miterlimit:10;stroke-dasharray:12;}
	.st10{fill:#4F9CB8;stroke:#FFFFFF;stroke-width:2;stroke-miterlimit:10;}
	.st11{fill:#CCCCCC;stroke:#FFFFFF;stroke-width:2;stroke-miterlimit:10;}
	.st12{fill:none;stroke:#C7B299;stroke-width:2;stroke-miterlimit:10;}

  .mapplic-clickable{fill:#67a4c0;}
</style>
<title>Directory-Map</title>
<g id="Base">
	<rect x="290.3" y="246.1" class="st0" width="25.8" height="25.8"/>
	<rect x="346" y="267" class="st1" width="27.5" height="13.7"/>
	<rect x="432.8" y="179.4" class="st1" width="13.7" height="27.5"/>
	<path class="st2" d="M1174.6,655.2v55.2c0,2.8-2.3,5.1-5.1,5.1c-0.1,0-0.1,0-0.2,0l-685.7-26c-6.3-0.2-12.6-1.1-18.8-2.7l-22.9-5.8
		c-8.9-2.3-18.1-3.1-27.3-2.6l-166.1,10.8v36.9l174.9-0.1c5.2,0,10.4-0.4,15.6-1.2l25.5-4c6.4-1,12.9-1.4,19.4-1.2l682.3,25
		c4.4,0.2,7.8,4,7.6,8.4c-0.1,1.1-0.3,2.1-0.8,3.1l0,0c-5,10.2-15.5,16.6-26.8,16.5l-251.2,7.4l-195,12c-10.9,0.7-21.8,0.4-32.6-0.7
		l-213.7-22l-166,2.9c-4,0.1-74-23.3-74-33.2l0.5-127.6c0-8.1-0.5-51.7-0.5-51.7l94.3,35c1.6-0.2,3.2-0.2,4.8,0.1l268.7,54.9
		l184.2,8l243.5-1.8c3.8,0.1,7.6-0.1,11.4-0.6l154-47.5L1174.6,655.2z"/>
	<path class="st2" d="M217.4,383.5l245.9-69.1l2,77.3l-260.9,61.3l-4-45C199.5,396.9,206.6,386.5,217.4,383.5z"/>
	<rect x="1144.9" y="446.1" class="st2" width="29.7" height="57"/>
	<rect x="414.7" y="400.4" class="st2" width="662.4" height="205.2"/>
	<path class="st3" d="M915,659.6c-3.2,0-6.4-0.1-9.6-0.2l-287.3-10.7c-8-0.3-16.1-1.2-24-2.6l-267.7-47.3L248.3,588
		c-13.8-1.9-24.4-13.1-25.5-27l-8.9-107.1c-1.3-15,5.2-29.7,17.3-38.8c6.1-4.6,15.9-10.3,27.2-11.7l14.4-1.8
		c5.4-0.7,10.9,0.6,15.6,3.5c0.8,0.5,1.6,0.7,2.5,0.7c0.2,0,0.5,0,0.7-0.1l51.2-8.1c1-0.2,1.9-0.6,2.6-1.4l4.8-5
		c2.7-2.9,6.1-5,9.9-6.2l59-18.7c2-0.6,4.1-0.9,6.2-0.9c10.3,0,24.7,6.2,25.2,18v0.3l0.7,127.2c0,4-1.6,7.9-4.4,10.8
		c-1.4,1.4-3,2.5-4.8,3.2c1.6,0.5,3.3,0.7,5,0.6c1,0,2.1,0,3.3,0l3-0.1h136.2c2.1-0.1,4.2-2.7,4.2-5.2v-25.4
		c0-12.7,10-22.3,23.2-22.4h272c11.2,0,20.2,9,20.2,20.2v75.8l35.9,0.1c9.9,0,18,8.1,18,18.1v25.7l62.4-0.1v-78.7l0.3-21.8h-53.4
		c-7.6-0.2-14-7.1-14-15.2v-9.7c0-7.9,6.4-14.4,14.4-14.4h89.2c7.9,0,14.8,6.3,15.2,13.8v41.2l3.4,1.5v-37.7
		c-0.3-5.2,1.6-10.2,5.1-14c3.1-3.1,7.4-4.9,11.8-4.8h48.9c10.2,0,18.4,8.3,18.5,18.5v116.6c0,11.7-8.6,21.5-20.2,23.1l-195,26.5
		C938.3,658.8,926.6,659.6,915,659.6z"/>
	<path class="st2" d="M425.3,375c6.4,0,15.5,3.8,15.7,8.9l0.6,127.1c0,2.8-2.1,5.4-4.9,5.4h-10.6c-2.8,0-5,3-5.1,4.9
		c0,1.9,1,3.7,2.7,4.5l9,5.4c6.2,3.3,9.2,3.8,14.1,3.8c1.8,0,3.9-0.1,6.5-0.1h136.2c7.5-0.1,13.6-7.2,13.6-14.7v-25.3
		c0-7.6,6.2-12.8,13.8-12.9h272c5.9,0,10.7,4.8,10.7,10.7v0v78.2c0,3.9,3.2,7.1,7.1,7.1l38.3,0.1c4.7,0,8.6,3.8,8.6,8.6v26.6
		c0,4.7,3.8,8.6,8.6,8.6l64.3-0.1c4.7,0,8.6-3.8,8.6-8.6v0v-79.5l0.4-31.4h-62.8c-2.7-0.1-4.8-3-4.8-5.7v-9.7c0-2.7,2.2-4.9,4.9-4.9
		l0,0h89.2c2.6,0,5.6,2.1,5.7,4.7v47l22.4,9.9v-52.3c-0.1-5.1,2.3-9.2,7.4-9.2h48.9c5,0,9,4,9,9v116.6c0,6.9-5.1,12.8-12,13.7
		l-195,26.5c-11.1,1.5-22.4,2.3-33.6,2.3c-3.1,0-6.2-0.1-9.3-0.2l-287.2-10.7c-7.6-0.3-15.2-1.1-22.7-2.4l-267.9-47.3l-78.2-10.9
		c-9.4-1.3-16.5-8.9-17.3-18.3l-8.9-107.1c-1-11.8,4-23.2,13.5-30.4c6.7-5,14.7-8.9,22.7-9.9L274,411c0.6-0.1,1.2-0.1,1.7-0.1
		c2.7,0,5.3,0.8,7.6,2.2c2.3,1.4,4.9,2.2,7.6,2.2c0.7,0,1.5-0.1,2.2-0.2l51.2-8.1c3.1-0.5,5.9-2,8-4.2l4.8-5c1.6-1.7,3.7-3,5.9-3.7
		l59-18.7C423.1,375.1,424.2,374.9,425.3,375 M425.3,355.9c-3,0-6.1,0.4-9,1.3l-59,18.7c-5.3,1.7-10.1,4.7-13.9,8.6l-3.6,3.8
		l-47.9,7.6c-4.9-2.7-10.5-4.2-16.1-4.2c-1.4,0-2.7,0.1-4.1,0.2l-14.5,1.9c-13.4,1.7-24.6,8.3-31.7,13.5
		c-14.7,11.1-22.6,28.9-21.1,47.2l8.9,107.1c1.5,18.2,15.5,33,33.6,35.5l77.9,10.9l267.5,47.3c8.4,1.5,16.8,2.4,25.3,2.7L905,668.9
		c3.3,0.1,6.7,0.2,10,0.2c12.1,0,24.2-0.8,36.2-2.5l195-26.5c16.3-2.2,28.4-16.1,28.4-32.5V491c0-15.5-12.5-28-28-28h-48.9
		c-6.7-0.1-13.2,2.5-18,7.1c-4.7-4.6-10.9-7.1-17.5-7.1h-89.3c-13.2,0-23.9,10.7-23.9,23.9v9.7c0,13.3,10.4,24.4,23.3,24.7h44
		l-0.2,12.2v69.3l-43.4,0.1v-16.1c0-15.2-12.3-27.5-27.5-27.6l-26.4-0.1v-66.3c0-16.4-13.3-29.7-29.7-29.7H616.9
		c-18.3,0.1-32.7,14.1-32.7,31.9v21H460.2c0.3-1.6,0.5-3.3,0.5-5L460,383.7v-0.6c-0.4-9.4-6.2-17.6-15.9-22.5
		C438.3,357.6,431.9,356.1,425.3,355.9L425.3,355.9z"/>
	<ellipse class="st2" cx="704.8" cy="274.5" rx="37.9" ry="22.2"/>
	<path class="st3" d="M721.7,465.7c-7,0-12.7-5.7-12.7-12.7V277.8c0-7,5.7-12.7,12.7-12.8c1.1,0,2.2,0.1,3.3,0.4l430.6,114.1
		c5.6,1.5,9.5,6.6,9.4,12.4V453c0,7-5.7,12.7-12.7,12.7L721.7,465.7z"/>
	<path class="st2" d="M721.7,274.5c0.3,0,0.6,0,0.8,0.1l430.6,114.1c1.4,0.4,2.4,1.7,2.4,3.1V453c0,1.8-1.4,3.2-3.2,3.2H721.7
		c-1.8,0-3.2-1.4-3.2-3.2V277.8C718.5,276,719.9,274.5,721.7,274.5 M721.7,255.5c-12.3,0-22.2,10-22.2,22.2V453
		c0,12.3,10,22.2,22.2,22.2h430.6c12.3,0,22.2-10,22.2-22.2v-61.1c0-10.1-6.8-18.9-16.5-21.5L727.4,256.3
		C725.5,255.8,723.6,255.5,721.7,255.5z"/>
	<polygon class="st2" points="691.6,234.9 197.6,376.8 202,425.7 699.5,274.5 	"/>
	<polygon class="st2" points="685.3,211.6 1174.5,365.5 1174.5,391 677.4,251.2 	"/>
	<path class="st3" d="M469.2,465.7c-7.4,0-13.4-6-13.4-13.4V336.5c0-6.1,4.1-11.4,10-12.9l219.3-58.1c6.8-1.8,13.7,2.2,15.6,9
		c0.3,1.1,0.4,2.2,0.4,3.3V453c0,7-5.7,12.7-12.7,12.7L469.2,465.7z"/>
	<path class="st2" d="M688.4,274.5c1.8,0,3.2,1.5,3.2,3.2V453c0,1.8-1.4,3.2-3.2,3.2H469.2c-2.1,0-3.9-1.7-3.9-3.9l0,0V336.5
		c0-1.8,1.2-3.3,2.9-3.7l219.3-58.1C687.8,274.6,688.1,274.5,688.4,274.5 M688.4,255.5c-1.9,0-3.8,0.3-5.7,0.8l-219.3,58.1
		c-10,2.7-17,11.7-17,22.1v115.8c0,12.6,10.2,22.9,22.9,22.9h219.1c12.3,0,22.2-9.9,22.2-22.2V277.8
		C710.6,265.5,700.7,255.6,688.4,255.5L688.4,255.5z"/>
	<g>
		<text transform="matrix(6.123234e-17 1 -1 6.123234e-17 1180.2402 436.47)" class="st4 st5 st6">Satellite Drive</text>
	</g>
	<g>
		<text transform="matrix(1 0 0 1 800.29 401.68)" class="st4 st5 st6">parking</text>
	</g>
	<g>
		<text transform="matrix(5.989229e-02 0.9982 -0.9982 5.989229e-02 185.1396 446.5699)" class="st4 st5 st6">Spectrum Way</text>
	</g>
	<path class="st2" d="M1188.9,211.1L724.1,66.8l-10.8-3.4c-6.9-2.1-14.3-1.9-21,0.8l-7.7,3L187.1,264.4l-4.4,1.7
		c-6.3,2.5-9.8,9.2-8.2,15.8l1.1,4.6l19.4,79.8l4.6,18.9l18.8-5l478.2-126.9l8.6-2.3l8.5,2.3L1153,370.4l19.4,5.2l4.1-19.7
		l25.3-122.8l1-4.8c1.4-6.8-2.6-13.6-9.3-15.7L1188.9,211.1z M691.6,234.9l-478.1,127L194.1,282L691.6,84.9V234.9z M1157.9,352
		L718.5,234.9v-150l464.8,144.3L1157.9,352z"/>
	<polygon class="st3" points="1183.2,229.2 1157.9,352 718.5,234.9 718.5,84.9 	"/>
	<polygon class="st3" points="691.6,84.9 691.6,234.9 213.5,361.8 194.1,282 	"/>
	<g>
		<text transform="matrix(1 0 0 1 525.961 401.68)" class="st4 st5 st6">parking</text>
	</g>
	<g>
		<text transform="matrix(0.999 4.545829e-02 -4.545829e-02 0.999 667.1373 716.7585)" class="st4 st5 st6">Mississauga Bus Rapid Transit </text>
	</g>
	<g>
		<text transform="matrix(1 0 0 1 256.1258 710.68)" class="st4 st5 st6">spectrum station</text>
	</g>
	<text transform="matrix(1 0 0 1 344.4658 242.01)" class="st4 st5 st6">parking / future development</text>
	<text transform="matrix(0.9316 -0.3634 0.3634 0.9316 362.1851 189.1028)" class="st4 st5 st6">skymark avenue</text>
	<text transform="matrix(0.9548 0.2973 -0.2973 0.9548 874.733 107.8561)" class="st4 st5 st6">skymark avenue</text>
	<g>
		<text transform="matrix(1 0 0 1 820.0226 240.98)" class="st4 st5 st6">parking / future development</text>
	</g>
	<line class="st7" x1="704.8" y1="72.9" x2="704.8" y2="78.9"/>
	<line class="st8" x1="704.8" y1="90.9" x2="704.8" y2="444.2"/>
	<line class="st7" x1="704.8" y1="450.2" x2="704.8" y2="456.2"/>
	<polyline class="st9" points="223.3,378.9 704.8,252.4 1153,370.4 	"/>
	<polyline class="st9" points="453.5,338 453.5,466.8 1155.5,466.8 	"/>
	<polygon class="st4" points="249.4,672.8 424.5,673.8 424.5,679.6 249.4,688.1 	"/>
	<path class="st3" d="M250.4,673.9l173.1,0.9v3.8L250.4,687V673.9 M248.3,671.8v17.4l177.2-8.7v-7.8L248.3,671.8L248.3,671.8z"/>
	<polygon class="st4" points="249.4,725 424.5,725 424.5,730.9 249.4,737.6 	"/>
	<path class="st3" d="M423.5,726v3.9l-173.1,6.6V726H423.5 M425.5,723.9H248.4v14.7l177.2-6.8V723.9L425.5,723.9z"/>
</g>
<g id="Landmarks">
	<g id="landmarks-container">
		<rect     id="a1"             x="437" y="548.7" class="st10" width="16.5" height="47"/>
		<rect     id="a2"             x="453.5" y="548.7" class="st10" width="16" height="47"/>
		<polygon  id="a3"             class="st10" points="495.5,576.6 495.5,595.7 469.5,595.7 469.5,548.7 486.7,548.7 486.7,561.2 490.6,561.2 490.6,576.6 		"/>
		<polygon  id="a4"             class="st10" points="532,565.5 532,605.7 487,605.7 487,595.7 495.5,595.7 495.5,565.5 		"/>
		<rect     id="a5"             x="501.5" y="548.7" class="st10" width="30.5" height="16.8"/>
    <polygon  id="b1"             class="st10" points="578.8 613.7 556 613.7 556 559.7 578.8 559.7 578.8 613.7"/>
    <polygon  id="b2"             class="st10" points="608 577.7 608 618.7 586 618.7 586 613.7 579.3 613.7 579.3 592.9 579.3 559.72 589 559.7 589 577.7 608 577.7"/>
    <polygon  id="b3"             class="st10" points="668 576.7 668 597.7 608 597.7 608 576.7 668 576.7"/>
    <polygon  id="b4"             class="st10" points="668 594.7 668 618.7 608 618.7 608 594.7 616 594.7 616 597.86 662 597.7 662 594.7 668 594.7"/>
		<polygon  id="c1"             class="st10" points="657.5,495.7 657.5,535.1 637.2,535.1 637.2,527.5 617,527.5 617,495.7 		"/>
		<polygon  id="c2"             class="st10" points="650.8,535.1 650.7,551.7 617,551.7 617,527.5 637.2,527.5 637.2,535.1 		"/>
		<rect     id="c3"             x="657.5" y="495.7" class="st10" width="35.5" height="34.5"/>
		<polygon  id="c4"             class="st10" points="693,530.2 693,551.7 650.7,551.7 650.8,535.1 657.5,535.1 657.5,530.2 		"/>
		<rect     id="d1"             x="760.3" y="524.4" class="st10" width="46.7" height="43.3"/>
		<polygon  id="d2"             class="st10" points="760.3,495.7 760.3,567.7 734,567.7 734,571.7 707,571.7 707,495.7 		"/>
		<rect     id="d3"             x="760.3" y="495.7" class="st10" width="46.7" height="28.7"/>
		<path     id="spsq"           class="st10" d="M809,588.7h-62v2h-22v-5h-9v-4h-29v36h4v4h22c0,0.4,0,0.7,0,1c0,2,2.1,2.3,3,2c11-3.4,22.5-7.3,33.9-11H795 v-4h14V588.7z"/>
		<polygon  id="e1"             class="st10" points="846.4,495.7 846.4,517.9 836.3,517.9 836.3,523.2 820,523.2 820,495.7 		"/>
		<polygon  id="e2"             class="st10" points="886,495.7 886,521 876.2,521 876.2,517.9 846.4,517.9 846.4,495.7 		"/>
		<polygon  id="e3-4"           class="st10" points="886,521 886,554.7 876,554.7 876,555.7 840,555.7 840,554.7 820,554.7 820,523.2 836.3,523.2 836.3,517.9 876.2,517.9 876.2,521 		"/>
		<polygon  id="f1"             class="st10" points="916.1,591.7 916.1,607.9 887.7,607.9 887.7,630.7 862,630.7 862,631.7 830,631.7 830,592.7 836,592.7 836,577.7 882,577.7 882,591.7 		"/>
		<polygon  id="f3"             class="st10" points="940,591.7 940,630.7 887.7,630.7 887.7,607.9 916.1,607.9 916.1,591.7 		"/>
		<polygon  id="na"               class="st11" points="501.5,548.7 501.5,565.5 495.5,565.5 495.5,576.6 490.6,576.6 490.6,561.2 486.7,561.2 486.7,548.7 "/>
		<polygon  id="office-2"       class="st10" points="1138,578.7 1138,521.7 1065,521.7 1065,512.7 1039,512.7 1039,521.7 968,521.7 968,578.7 992,578.7 992,582.7 989,582.7 989,599.7 988,599.7 988,614.7 1082,614.7 1082,600.7 1117,600.7 1117,582.7 1114,582.7 1114,578.7 		"/>
		<polygon  id="office-1"       class="st10" points="428,502.7 428,446.7 356,446.7 356,438.7 330,438.7 330,446.7 258,446.7 258,502.7 283,502.7 283,507.7 280,507.7 280,522.7 310.6,522.7 310.6,550.2 411.1,550.2 411.1,528.5 406.7,528.5 406.7,507.7 404,507.7 404,502.7 "/>
	</g>
	<line class="st12" x1="843.3" y1="517.9" x2="843.3" y2="517.8"/>
</svg>
