<svg xmlns="http://www.w3.org/2000/svg" xmlns:xlink="http://www.w3.org/1999/xlink" viewBox="0 0 1366 814.7"><defs><pattern id="New_Pattern" data-name="New Pattern" width="13" height="13" patternTransform="translate(8)" patternUnits="userSpaceOnUse" viewBox="0 0 13 13"><rect width="13" height="13" fill="none"/><line x1="5.36" y1="-20.34" x2="-24.2" y2="9.21" fill="none" stroke="gray" stroke-miterlimit="10" stroke-width="3"/><line x1="0.62" y1="-22.05" x2="-28.94" y2="7.51" fill="none" stroke="gray" stroke-miterlimit="10" stroke-width="3"/><line x1="18.36" y1="-20.34" x2="-11.2" y2="9.21" fill="none" stroke="gray" stroke-miterlimit="10" stroke-width="3"/><line x1="13.62" y1="-22.05" x2="-15.94" y2="7.51" fill="none" stroke="gray" stroke-miterlimit="10" stroke-width="3"/><line x1="31.36" y1="-20.34" x2="1.8" y2="9.21" fill="none" stroke="gray" stroke-miterlimit="10" stroke-width="3"/><line x1="26.62" y1="-22.05" x2="-2.94" y2="7.51" fill="none" stroke="gray" stroke-miterlimit="10" stroke-width="3"/><line x1="39.62" y1="-22.05" x2="10.06" y2="7.51" fill="none" stroke="gray" stroke-miterlimit="10" stroke-width="3"/><line x1="5.36" y1="-7.34" x2="-24.2" y2="22.21" fill="none" stroke="gray" stroke-miterlimit="10" stroke-width="3"/><line x1="0.62" y1="-9.05" x2="-28.94" y2="20.51" fill="none" stroke="gray" stroke-miterlimit="10" stroke-width="3"/><rect width="13" height="13" fill="#fff"/><line x1="18.36" y1="-7.34" x2="-11.2" y2="22.21" fill="none" stroke="gray" stroke-miterlimit="10" stroke-width="3"/><line x1="13.62" y1="-9.05" x2="-15.94" y2="20.51" fill="none" stroke="gray" stroke-miterlimit="10" stroke-width="3"/><line x1="31.36" y1="-7.34" x2="1.8" y2="22.21" fill="none" stroke="gray" stroke-miterlimit="10" stroke-width="3"/><line x1="26.62" y1="-9.05" x2="-2.94" y2="20.51" fill="none" stroke="gray" stroke-miterlimit="10" stroke-width="3"/><line x1="39.62" y1="-9.05" x2="10.06" y2="20.51" fill="none" stroke="gray" stroke-miterlimit="10" stroke-width="3"/><line x1="5.36" y1="5.66" x2="-24.2" y2="35.21" fill="none" stroke="gray" stroke-miterlimit="10" stroke-width="3"/><line x1="0.62" y1="3.95" x2="-28.94" y2="33.51" fill="none" stroke="gray" stroke-miterlimit="10" stroke-width="3"/><line x1="18.36" y1="5.66" x2="-11.2" y2="35.21" fill="none" stroke="gray" stroke-miterlimit="10" stroke-width="3"/><line x1="13.62" y1="3.95" x2="-15.94" y2="33.51" fill="none" stroke="gray" stroke-miterlimit="10" stroke-width="3"/><line x1="31.36" y1="5.66" x2="1.8" y2="35.21" fill="none" stroke="gray" stroke-miterlimit="10" stroke-width="3"/><line x1="26.62" y1="3.95" x2="-2.94" y2="33.51" fill="none" stroke="gray" stroke-miterlimit="10" stroke-width="3"/><line x1="39.62" y1="3.95" x2="10.06" y2="33.51" fill="none" stroke="gray" stroke-miterlimit="10" stroke-width="3"/></pattern></defs><title>SSQMap</title><g id="Base"><path d="M217.44,383.51l245.94-69.1,2,77.34L204.44,453.08l-4-45A23.41,23.41,0,0,1,217.44,383.51Z"/><rect x="1144.89" y="446.08" width="29.66" height="56.99"/><rect x="414.68" y="400.44" width="662.4" height="205.25"/><path d="M915,659.56c-3.2,0-6.43-.06-9.62-.18L618.09,648.72a176,176,0,0,1-24-2.56l-267.68-47.3L248.32,588a29.54,29.54,0,0,1-25.49-27l-8.91-107.12a44,44,0,0,1,17.27-38.77c6.15-4.57,15.85-10.31,27.17-11.71l14.43-1.79a23.66,23.66,0,0,1,15.57,3.49,4.73,4.73,0,0,0,2.51.72,4.49,4.49,0,0,0,.73-.06l51.22-8.1a4.71,4.71,0,0,0,2.64-1.38l4.77-5a23.68,23.68,0,0,1,9.91-6.17l59-18.73a20.24,20.24,0,0,1,6.16-.88c10.23,0,24.64,6.2,25.19,17.85l.65,11V511a15.27,15.27,0,0,1-4.39,10.73,14.31,14.31,0,0,1-4.79,3.19,14.77,14.77,0,0,0,5,.61c1,0,2.08,0,3.3,0l3.05-.06H589.55c2.08-.06,4.19-2.68,4.19-5.21V494.89c0-12.69,10-22.31,23.24-22.37H889a20.22,20.22,0,0,1,20.2,20.2v75.8l35.94.12a18.07,18.07,0,0,1,18,18.06v25.66l62.42-.12V533.56l.31-21.8H972.52c-7.6-.19-14-7.13-14-15.17V486.9a14.4,14.4,0,0,1,14.38-14.38h89.24c7.91,0,14.85,6.32,15.16,13.8V527.5l3.44,1.51V491.33a19.22,19.22,0,0,1,5.09-14,16.31,16.31,0,0,1,11.8-4.83h48.91A18.54,18.54,0,0,1,1165,491V607.58a23.33,23.33,0,0,1-20.18,23.11l-195,26.51A259.3,259.3,0,0,1,915,659.56Z" fill="#999"/><path d="M425.34,375c6.37,0,15.51,3.76,15.71,8.85l.63,10.82V511c0,2.83-2.07,5.42-4.9,5.42H426.22c-2.82,0-5,3-5.11,4.92a4.9,4.9,0,0,0,2.72,4.51l9.05,5.36C439.1,534.49,442.1,535,447,535c1.82,0,3.89-.07,6.49-.11H589.64c7.54-.11,13.6-7.17,13.6-14.71V494.89c0-7.62,6.16-12.84,13.78-12.87H889a10.7,10.7,0,0,1,10.7,10.7v78.19a7.11,7.11,0,0,0,7.1,7.11l38.31.12a8.56,8.56,0,0,1,8.56,8.56v26.61a8.56,8.56,0,0,0,8.56,8.56l64.3-.13a8.56,8.56,0,0,0,8.56-8.56V533.7l.44-31.44H972.76c-2.65-.07-4.76-3-4.76-5.68V486.9a4.88,4.88,0,0,1,4.88-4.88h89.24c2.62,0,5.56,2.07,5.66,4.68v47l22.44,9.88V491.24c-.12-5.06,2.33-9.22,7.39-9.22h48.91a9,9,0,0,1,9,9V607.58a13.81,13.81,0,0,1-4.53,10.23h0a13.77,13.77,0,0,1-7.43,3.46l-195,26.52a250.65,250.65,0,0,1-33.63,2.27q-4.63,0-9.26-.17L618.44,639.22a166.58,166.58,0,0,1-22.72-2.41L327.87,589.48l-78.23-10.94a20.2,20.2,0,0,1-17.34-18.33l-8.92-107.13a34.28,34.28,0,0,1,13.47-30.36c6.69-5,14.71-8.92,22.68-9.91L274,411a14.5,14.5,0,0,1,1.74-.1,14.19,14.19,0,0,1,7.58,2.19,14.14,14.14,0,0,0,7.58,2.2,15.09,15.09,0,0,0,2.22-.17L344.3,407a14.09,14.09,0,0,0,8-4.19l4.77-5a14.19,14.19,0,0,1,5.94-3.7l59-18.73a11.31,11.31,0,0,1,3.29-.43m0-19a29.93,29.93,0,0,0-9,1.32l-59,18.73a33.23,33.23,0,0,0-13.9,8.65l-3.64,3.8-47.9,7.58a33.17,33.17,0,0,0-16.13-4.18,32.74,32.74,0,0,0-4.08.25L257.19,394c-13.37,1.66-24.6,8.26-31.67,13.51a53.55,53.55,0,0,0-21.07,47.19l8.91,107.12A39.22,39.22,0,0,0,247,597.36l77.91,10.89,267.51,47.27a185.53,185.53,0,0,0,25.32,2.69L905,668.88c3.31.12,6.66.18,10,.18a268.76,268.76,0,0,0,36.19-2.45l195-26.51a32.82,32.82,0,0,0,28.4-32.52V491a28.05,28.05,0,0,0-28-28h-48.91a25.78,25.78,0,0,0-18,7.12,25.07,25.07,0,0,0-17.46-7.12H972.88A23.9,23.9,0,0,0,949,486.9v9.68c0,13.28,10.44,24.35,23.28,24.67h44l-.17,12.17v69.33l-43.42.09V586.7a27.6,27.6,0,0,0-27.54-27.56l-26.43-.08V492.72A29.74,29.74,0,0,0,889,463H616.94c-18.34.08-32.7,14.08-32.7,31.87v21H460.18a24.52,24.52,0,0,0,.5-4.92V394.14l0-.56L460,382.86c-.47-9.26-6.25-17.36-15.91-22.27A42.88,42.88,0,0,0,425.34,356Z"/><ellipse cx="704.83" cy="274.54" rx="37.94" ry="22.18"/><path d="M721.69,465.68A12.74,12.74,0,0,1,709,453V277.78A12.75,12.75,0,0,1,721.69,265a12.93,12.93,0,0,1,3.27.43l430.61,114.12A12.74,12.74,0,0,1,1165,391.9V453a12.74,12.74,0,0,1-12.73,12.73Z" fill="#999"/><path d="M721.69,274.54a3.44,3.44,0,0,1,.83.11l430.62,114.12a3.23,3.23,0,0,1,2.4,3.13V453a3.23,3.23,0,0,1-3.23,3.23H721.69a3.23,3.23,0,0,1-3.23-3.23V277.78a3.24,3.24,0,0,1,3.23-3.24m0-19a22.26,22.26,0,0,0-22.23,22.24V453a22.25,22.25,0,0,0,22.23,22.23h430.62A22.26,22.26,0,0,0,1174.54,453V391.9A22.26,22.26,0,0,0,1158,370.41L727.39,256.29a22,22,0,0,0-5.7-.75Z"/><path d="M469.24,465.69a13.39,13.39,0,0,1-13.38-13.38V336.52a13.39,13.39,0,0,1,9.95-12.93l219.33-58.12a12.71,12.71,0,0,1,16,12.31V453a12.75,12.75,0,0,1-12.73,12.74Z" fill="#999"/><path d="M688.4,274.54a3.24,3.24,0,0,1,3.23,3.24V453a3.23,3.23,0,0,1-3.23,3.23H469.24a3.88,3.88,0,0,1-3.88-3.88V336.52a3.87,3.87,0,0,1,2.88-3.74l219.33-58.13a3.44,3.44,0,0,1,.83-.11m0-19a22,22,0,0,0-5.7.75L463.38,314.41a22.91,22.91,0,0,0-17,22.11V452.31a22.9,22.9,0,0,0,22.88,22.88H688.4A22.25,22.25,0,0,0,710.63,453V277.78a22.26,22.26,0,0,0-22.23-22.24Z"/><text transform="translate(1183.24 436.47) rotate(90)" font-size="18.49" font-family="Lato-Bold, Lato" font-weight="700">Satellite Dri<tspan x="98.68" y="0" letter-spacing="-0.02em">v</tspan><tspan x="108.24" y="0">e</tspan></text><text transform="translate(905.19 401.68)" font-size="18.49" font-family="Lato-Bold, Lato" font-weight="700"><tspan letter-spacing="-0.03em">P</tspan><tspan x="11.1" y="0">arking</tspan></text><text transform="translate(546.68 391.67)" font-size="18.49" font-family="Lato-Bold, Lato" font-weight="700"><tspan letter-spacing="-0.03em">P</tspan><tspan x="11.1" y="0">arking</tspan></text><text transform="matrix(0.06, 1, -1, 0.06, 183.14, 446.57)" font-size="18.49" font-family="Lato-Bold, Lato" font-weight="700">Spectrum <tspan x="83.45" y="0" letter-spacing="-0.05em">W</tspan><tspan x="101.89" y="0" letter-spacing="-0.02em">a</tspan><tspan x="111.24" y="0">y</tspan></text><rect x="1295.13" y="696.34" width="42.63" height="94.39" fill="#ccc"/><text transform="translate(1306.89 732.95)" font-size="32.94" font-family="Lato-Bold, Lato" font-weight="700">+</text><text transform="translate(1310.53 775.91)" font-size="32.94" font-family="Lato-Bold, Lato" font-weight="700">-</text><rect x="31.98" y="39.52" width="42.63" height="42.63" fill="#ccc"/><rect x="37.64" y="45.17" width="31.32" height="31.32" fill="none" stroke="#1a1a1a" stroke-miterlimit="10" stroke-width="2"/><rect x="44" y="41.47" width="18.6" height="38.72" fill="#ccc"/><rect x="44.16" y="41.47" width="18.29" height="38.72" transform="translate(-7.53 114.13) rotate(-90)" fill="#ccc"/></g><g id="Landmarks"><g id="landmarks-test"><rect id="landmark_starbucks" x="437" y="548.7" width="16.5" height="47" stroke="#fff" stroke-miterlimit="10" stroke-width="2" fill="url(#New_Pattern)"/><rect id="landmark_teriyaki-experience" x="453.5" y="548.7" width="16" height="47" stroke="#fff" stroke-miterlimit="10" stroke-width="2" fill="url(#New_Pattern)"/></g><line x1="843.32" y1="517.92" x2="843.32" y2="517.81" stroke="#c7b299" stroke-miterlimit="10" stroke-width="2" fill="url(#New_Pattern)"/></g></svg>